<?xml version="1.0" encoding="UTF-8" standalone="no"?>
<!-- Created with Inkscape (http://www.inkscape.org/) -->

<svg
   width="102.25891mm"
   height="56.716816mm"
   viewBox="0 0 102.25891 56.716816"
   version="1.1"
   id="svg5"
   xml:space="preserve"
   xmlns="http://www.w3.org/2000/svg"
   xmlns:svg="http://www.w3.org/2000/svg"><defs
     id="defs2" /><g
     id="layer1"
     transform="translate(-30.366889,-13.501093)"><path
       style="fill:#ffffff;fill-opacity:1;stroke-width:0.264583"
       d="m 36.051839,64.52834 -5.684951,-5.68957 16.998197,-16.998196 16.998196,-16.99819 16.998187,16.99819 16.99821,16.998196 -5.68496,5.68957 c -3.12672,3.12926 -5.80453,5.68957 -5.95068,5.68957 -0.14615,0 -5.23317,-4.96639 -11.30448,-11.03642 L 64.380794,48.145074 57.029848,55.374434 C 52.98683,59.35057 48.010932,64.31696 45.972297,66.41084 c -2.038636,2.09389 -3.825611,3.80707 -3.971058,3.80707 -0.145447,0 -2.822677,-2.56031 -5.9494,-5.68957 z m 73.990441,-16.866156 -10.993492,-11.17865 -3.96241,3.94659 -3.96242,3.94659 -1.80482,-1.61338 c -0.99265,-0.88735 -3.64889,-3.46704 -5.90276,-5.73262 l -4.09794,-4.11925 4.36252,-4.38356 c 2.39939,-2.41096 6.84089,-6.77829 9.87001,-9.70518 l 5.50749,-5.32163 16.783672,16.78211 c 9.23102,9.23015 16.78367,16.90255 16.78367,17.04977 0,0.28717 -11.1347,11.507846 -11.41967,11.507846 -0.0937,0 -5.11743,-5.030386 -11.16385,-11.178636 z"
       id="path2143" /></g></svg>
